<?xml version="1.0" standalone="no"?>
<!DOCTYPE svg PUBLIC "-//W3C//DTD SVG 20010904//EN"
 "http://www.w3.org/TR/2001/REC-SVG-20010904/DTD/svg10.dtd">
<svg version="1.0" xmlns="http://www.w3.org/2000/svg"
 width="1000.000000pt" height="1000.000000pt" viewBox="0 0 1000.000000 1000.000000"
 preserveAspectRatio="xMidYMid meet">
<metadata>
Created by potrace 1.11, written by Peter Selinger 2001-2013
</metadata>
<g transform="translate(0.000000,1000.000000) scale(0.100000,-0.100000)"
fill="#000000" stroke="none">
<path d="M3210 8702 c-143 -96 -210 -151 -336 -276 -236 -236 -421 -501 -604
-866 -80 -160 -81 -142 8 -196 42 -26 348 -211 679 -410 548 -330 602 -361
598 -336 -3 15 -59 491 -125 1057 -66 567 -124 1042 -128 1057 l-7 27 -85 -57z"/>
<path d="M4088 6373 c-296 -709 -670 -1797 -1033 -3007 -105 -350 -309 -1061
-320 -1116 -13 -64 11 -18 45 85 43 131 218 608 318 866 291 751 594 1393 849
1799 194 308 395 528 554 608 280 140 524 24 791 -378 91 -137 267 -495 364
-740 102 -258 253 -715 359 -1085 47 -165 88 -307 91 -316 8 -27 -331 -476
-585 -774 -217 -255 -563 -617 -826 -864 -71 -68 -123 -119 -115 -115 8 5 383
264 834 577 450 313 824 571 831 573 7 3 16 -3 19 -13 13 -43 140 -584 202
-858 37 -165 68 -301 70 -303 1 -2 34 7 73 19 l72 21 -6 42 c-3 22 -21 194
-40 381 -20 187 -49 463 -66 614 -16 151 -29 282 -27 292 2 10 209 161 503
365 611 425 671 468 666 480 -9 19 -1202 863 -1197 846 4 -10 17 -72 31 -138
31 -147 32 -243 4 -338 -24 -83 -109 -289 -116 -282 -3 2 -22 143 -44 313 -22
169 -60 454 -85 633 -25 179 -48 345 -50 370 -20 178 -216 1261 -234 1290 -6
10 -264 45 -922 126 -502 63 -927 114 -943 114 -29 0 -33 -5 -67 -87z"/>
<path d="M4060 4256 c-5 -15 -10 -32 -10 -39 0 -6 -19 -97 -41 -202 -42 -191
-58 -245 -59 -194 0 26 -63 349 -78 403 -14 51 -30 41 -36 -21 -10 -111 -11
-578 -1 -581 6 -1 12 90 15 252 3 140 8 258 13 262 4 4 7 3 7 -3 0 -6 13 -82
30 -169 16 -88 30 -178 30 -200 0 -43 25 -81 34 -53 13 39 52 197 72 294 l23
110 -1 -264 c-1 -184 2 -266 9 -268 6 -2 14 9 17 24 7 34 -1 663 -8 671 -3 2
-10 -7 -16 -22z"/>
<path d="M3640 4193 c-11 -38 -41 -169 -66 -293 -25 -123 -50 -234 -55 -247
-6 -17 -5 -23 6 -23 13 0 24 27 40 109 l7 34 49 -6 c27 -3 54 -9 59 -12 6 -3
10 -35 10 -70 0 -64 12 -87 33 -66 8 8 6 91 -7 312 -9 166 -20 307 -23 315
-12 32 -33 11 -53 -53z m49 -206 c5 -83 7 -165 4 -180 -6 -28 -7 -29 -52 -22
-25 4 -50 11 -55 15 -5 5 -2 33 7 67 8 32 21 85 27 118 6 33 18 93 27 134 22
96 28 76 42 -132z"/>
<path d="M4686 3968 c-7 -280 -15 -355 -30 -271 -4 21 -23 103 -43 183 -19 80
-39 172 -44 205 -18 126 -47 191 -69 155 -18 -30 -22 -641 -4 -647 8 -3 12 69
12 259 1 145 6 277 11 293 5 17 10 25 10 18 4 -47 56 -301 84 -403 19 -69 37
-137 41 -152 7 -29 20 -36 32 -17 10 17 12 52 23 355 5 149 11 275 12 280 4
21 -2 34 -14 34 -11 0 -15 -57 -21 -292z"/>
<path d="M4312 4223 c-17 -42 -37 -127 -86 -363 -25 -118 -48 -223 -51 -232
-5 -13 -2 -18 8 -18 11 0 19 17 28 60 17 89 24 95 85 78 l49 -14 3 -67 c2 -48
7 -67 16 -67 15 0 29 27 22 39 -3 4 -6 68 -7 141 -2 154 -24 443 -34 459 -11
18 -22 12 -33 -16z m34 -290 l7 -163 -44 0 c-74 0 -75 5 -51 112 12 51 29 131
37 178 9 47 19 94 22 105 11 33 22 -52 29 -232z"/>
<path d="M5154 4225 c-56 -38 -57 -150 -4 -262 69 -145 85 -234 59 -314 -19
-57 -38 -72 -81 -65 -38 6 -53 -6 -22 -18 31 -12 71 -6 93 15 68 64 68 208 -1
344 -59 115 -73 216 -37 267 18 25 25 28 52 22 28 -6 30 -5 18 10 -17 20 -50
21 -77 1z"/>
<path d="M4920 4163 c-11 -38 -41 -169 -66 -293 -25 -123 -50 -234 -55 -247
-6 -17 -5 -23 6 -23 8 0 18 17 25 43 22 89 23 92 58 90 77 -3 81 -7 84 -81 2
-52 6 -67 18 -67 13 0 15 20 13 130 -3 144 -21 445 -29 488 -10 48 -32 31 -54
-40z m47 -240 l6 -173 -25 0 c-14 0 -40 3 -58 6 -36 8 -36 -6 -1 159 57 265
54 254 63 215 5 -19 11 -113 15 -207z"/>
<path d="M5403 4210 c-17 -10 -36 -27 -41 -37 -27 -52 -20 -501 9 -555 31 -58
112 -78 160 -39 29 24 18 38 -16 23 -57 -26 -106 -10 -125 40 -15 41 -25 328
-15 433 6 64 11 82 32 103 21 21 31 24 74 20 50 -5 58 -1 37 20 -18 18 -79 14
-115 -8z"/>
<path d="M5658 4213 c-22 -6 -24 -31 -3 -29 13 1 16 -38 19 -284 3 -192 1
-289 -6 -297 -6 -7 -20 -13 -31 -13 -32 0 -7 -18 28 -21 58 -4 85 1 85 16 0 9
-9 15 -24 15 l-23 0 -5 268 c-3 148 -4 281 -1 295 3 16 13 27 24 29 11 2 21 8
22 13 2 11 -56 16 -85 8z"/>
<path d="M3566 3474 c-3 -9 -6 -87 -6 -175 0 -154 1 -159 20 -159 12 0 32 11
45 25 32 31 34 95 5 143 -19 30 -19 35 -5 62 22 43 19 76 -11 99 -32 25 -40
26 -48 5z m56 -29 c12 -26 -2 -74 -28 -96 -12 -10 -14 -1 -14 55 0 52 3 66 15
66 9 0 20 -11 27 -25z m5 -155 c19 -38 16 -87 -7 -110 -34 -34 -40 -24 -40 61
0 71 2 80 17 77 10 -2 23 -14 30 -28z"/>
<path d="M4375 3471 c-28 -6 -28 -7 -8 -13 22 -6 23 -10 26 -169 l3 -164 2
168 c2 141 4 167 17 167 8 0 15 5 15 10 0 11 -10 11 -55 1z"/>
<path d="M4805 3454 c-14 -14 -16 -38 -13 -159 3 -125 5 -146 23 -165 14 -15
26 -19 45 -15 42 11 50 27 9 20 -55 -10 -62 7 -67 151 -4 105 -2 128 13 150
12 19 23 25 41 21 13 -2 24 0 24 4 0 16 -58 10 -75 -7z"/>
<path d="M3707 3433 c-4 -3 -7 -73 -7 -155 l0 -148 30 0 c17 0 30 5 30 10 0 6
-9 10 -19 10 -26 0 -32 23 -25 95 5 48 10 62 20 58 8 -3 14 0 14 6 0 6 -7 11
-15 11 -12 0 -15 13 -15 55 0 55 0 55 26 49 19 -5 25 -4 20 5 -8 12 -48 15
-59 4z"/>
<path d="M3836 3425 c-20 -20 -29 -87 -24 -185 4 -89 20 -117 62 -104 31 9 33
14 39 77 6 57 5 57 -21 56 -17 -1 -21 -3 -9 -6 31 -8 19 -113 -13 -113 -33 0
-43 27 -42 123 0 104 11 143 44 157 l23 9 -22 0 c-12 1 -28 -6 -37 -14z"/>
<path d="M3977 3430 c22 -9 22 -11 16 -142 -3 -79 -11 -136 -17 -140 -6 -4 7
-7 29 -7 22 1 32 3 23 6 -16 4 -18 19 -18 139 0 121 2 134 18 134 14 0 15 2 2
10 -8 5 -28 9 -45 9 -28 0 -28 -1 -8 -9z"/>
<path d="M4096 3418 c-10 -38 -7 -278 4 -278 5 0 8 32 5 78 -2 42 -1 100 3
127 l8 50 38 -120 c21 -66 39 -126 42 -132 10 -34 23 -6 28 60 16 214 17 227
6 227 -6 0 -10 -34 -11 -87 0 -49 -4 -108 -7 -132 l-7 -44 -44 129 c-24 71
-47 133 -51 137 -4 5 -10 -2 -14 -15z"/>
<path d="M4478 3326 c-11 -147 -10 -196 2 -196 6 0 10 32 10 76 0 65 2 75 16
70 9 -3 20 -6 25 -6 5 0 9 -34 9 -75 0 -43 4 -75 10 -75 12 0 12 204 1 270 -8
43 -9 41 -10 -27 -1 -70 -2 -73 -26 -73 -23 0 -24 3 -27 73 -3 70 -3 69 -10
-37z"/>
<path d="M4617 3423 c-2 -4 -5 -74 -6 -155 l-2 -148 33 1 c22 1 26 3 12 6 -27
5 -32 22 -26 101 4 55 7 62 26 63 21 0 21 0 -1 9 -20 8 -23 17 -23 61 0 46 2
51 20 46 11 -3 20 -1 20 4 0 5 -4 9 -9 9 -5 0 -16 3 -24 6 -8 3 -17 2 -20 -3z"/>
<path d="M5010 3356 c0 -74 -1 -76 -25 -76 -24 0 -25 2 -26 73 -1 47 -5 23
-10 -73 -5 -92 -5 -148 1 -154 7 -7 10 17 10 67 0 75 0 77 25 77 24 0 25 -2
25 -75 0 -43 4 -75 10 -75 6 0 10 56 10 149 0 89 -4 152 -10 156 -6 4 -10 -22
-10 -69z"/>
<path d="M5104 3270 c-16 -82 -26 -150 -23 -150 9 0 19 27 19 52 0 17 4 19 27
13 16 -4 28 -7 29 -8 0 -1 6 -18 12 -37 10 -31 11 -28 7 35 -3 39 -8 109 -12
158 -4 56 -10 87 -18 87 -7 0 -23 -59 -41 -150z m50 13 l7 -83 -25 0 c-29 0
-33 18 -17 80 5 19 12 48 16 64 3 15 7 27 9 25 2 -2 7 -41 10 -86z"/>
<path d="M5236 3374 c-10 -73 -7 -254 4 -254 5 0 11 54 12 128 l3 127 44 -132
c24 -73 47 -133 52 -133 8 0 14 57 25 208 4 64 3 92 -5 92 -7 0 -11 -35 -12
-102 -1 -57 -4 -116 -8 -133 l-7 -30 -7 30 c-10 41 -79 228 -87 238 -4 4 -10
-13 -14 -39z"/>
<path d="M5456 3401 c-33 -37 -43 -219 -14 -273 10 -21 58 -24 76 -6 7 7 12
36 12 65 0 51 -1 53 -27 52 -26 -2 -26 -2 -4 -6 21 -4 23 -8 16 -51 -8 -56
-19 -71 -43 -56 -22 15 -34 84 -28 166 5 73 19 108 41 108 8 0 15 5 15 10 0
17 -26 11 -44 -9z"/>
<path d="M5586 3318 c-3 -50 -6 -120 -6 -155 l0 -63 31 0 c17 0 28 4 24 10 -3
6 -13 10 -21 10 -11 0 -14 16 -14 74 0 69 2 75 23 79 l22 4 -22 8 c-20 6 -23
14 -23 61 0 54 0 54 28 48 21 -4 24 -3 12 5 -38 27 -47 15 -54 -81z"/>
<path d="M6600 1313 c-30 -9 -56 -17 -58 -18 -1 -1 29 -146 67 -321 38 -175
90 -416 115 -534 26 -118 53 -237 61 -265 l15 -50 -4 60 c-6 73 -103 1043
-111 1103 -7 47 -7 47 -85 25z"/>
</g>
</svg>
